<svg width="45" height="41" viewBox="0 0 45 41" fill="none" xmlns="http://www.w3.org/2000/svg">
<path d="M31.5033 0.532227C32.1615 -0.0796393 33.1453 -0.196957 34.0052 0.354492C35.5017 1.31428 37.1954 3.03754 37.5199 5.9248C37.6617 7.18763 37.2396 8.44018 36.7426 9.44336C36.2368 10.464 35.5941 11.345 35.1459 11.9033C34.999 12.0864 34.9603 12.2964 35.0013 12.459L38.3949 25.8818C38.4324 26.0299 38.5424 26.174 38.7152 26.2617C39.4135 26.6163 40.5572 27.2459 41.6566 28.0684C42.7318 28.8727 43.8857 29.9495 44.4525 31.2324C45.3189 33.1937 44.8529 35.1864 44.2504 36.6016C43.8399 37.5651 42.938 38.0248 42.0385 37.8965C41.1812 37.7741 40.4407 37.1403 40.1615 36.2207L39.472 33.9482C39.443 33.8525 39.3961 33.7949 39.3558 33.7646C38.9972 33.496 38.4018 33.089 37.7699 32.8105C37.0901 32.5111 36.6113 32.4683 36.3461 32.5703C36.0986 32.6656 35.7868 32.9799 35.4818 33.5732C35.1965 34.1284 35.0068 34.7515 34.9017 35.1631C34.8894 35.2122 34.8891 35.2891 34.933 35.3867L35.601 36.873C36.0176 37.8003 35.8402 38.8094 35.2152 39.4629C34.56 40.1477 33.5161 40.3266 32.5785 39.7627C31.077 38.8595 29.27 37.3057 29.058 34.9248C28.9761 34.0035 29.16 33.0258 29.4554 32.1035H14.8344C14.5582 32.1035 14.3344 32.3274 14.3344 32.6035V32.8037C14.3339 34.184 13.2147 35.3036 11.8344 35.3037H4.5863C3.20595 35.3036 2.08675 34.184 2.0863 32.8037V28.8506C1.74194 28.4952 1.54744 28.0203 1.54724 27.5244V19.5625C1.54726 18.7984 1.89721 18.0757 2.49646 17.6016L4.43591 16.0664C4.21182 16.0483 3.98602 16.0255 3.76404 15.9912C3.18765 15.9022 2.55566 15.7416 2.03259 15.4277C1.00574 14.8115 0.43667 13.7953 0.185913 13.2578C-0.0417553 12.7697 -0.098559 12.1259 0.234741 11.5449C0.47988 11.1179 0.932236 10.5581 1.71716 10.1758C2.50482 9.79219 3.53812 9.63051 4.86755 9.84961C5.78259 10.0006 6.39248 10.7143 6.76892 11.2646C7.12536 11.7858 7.43038 12.408 7.67029 12.8877L10.4076 7.47559C10.833 6.63428 11.6953 6.10367 12.6381 6.10352H22.4623C22.5866 5.19811 22.8426 4.33331 23.1273 3.58105C23.5288 2.52074 24.498 2.00034 25.4681 2.16699C26.3962 2.32653 27.1539 3.08196 27.3314 4.13477L27.7191 6.43359C27.7386 6.54855 27.7879 6.6174 27.8304 6.65137C28.1585 6.91318 28.6524 7.26786 29.1683 7.5127C29.7234 7.77605 30.095 7.81178 30.2894 7.75C30.4827 7.68844 30.7653 7.44955 31.0707 6.94629C31.3542 6.47899 31.5598 5.94581 31.6791 5.58887C31.6922 5.54956 31.6995 5.483 31.6713 5.38965L30.9193 2.91016C30.6512 2.02626 30.8831 1.10918 31.5033 0.532227ZM32.8578 2.00586C32.8328 2.03753 32.7761 2.14143 32.8334 2.33008L33.5853 4.80859C33.7171 5.2432 33.7382 5.73845 33.5765 6.22266C33.4355 6.64472 33.1742 7.33581 32.7806 7.98438C32.4087 8.59721 31.8028 9.36767 30.8969 9.65625C29.9536 9.95665 28.9867 9.64093 28.3109 9.32031C27.5959 8.98104 26.9646 8.51892 26.5824 8.21387C26.1083 7.83523 25.8381 7.30359 25.7474 6.7666L25.3597 4.4668C25.336 4.32658 25.2825 4.24663 25.2416 4.2041C25.1978 4.15885 25.1551 4.14214 25.1293 4.1377C25.1055 4.13364 25.0961 4.1393 25.0922 4.1416C25.087 4.14465 25.0421 4.17361 24.9984 4.28906C24.469 5.68765 24.1844 7.18679 24.5424 8.42578C25.141 10.497 27.2655 11.4173 28.7133 11.793C29.6365 12.0325 30.49 12.7498 30.723 13.8037L32.5238 21.9541L32.0179 22.0654L32.0443 22.1943L32.5248 22.0918L33.7289 27.6934L33.8226 28.1309L33.558 28.4932C33.5571 28.4944 33.5551 28.4972 33.5531 28.5C33.5487 28.5061 33.5419 28.5162 33.5326 28.5293C33.5136 28.5561 33.4839 28.5975 33.4467 28.6514C33.3719 28.7596 33.2637 28.9197 33.1342 29.1211C32.8737 29.526 32.5294 30.0939 32.1947 30.7441C31.4973 32.0991 30.9489 33.6097 31.0502 34.748C31.1747 36.1447 32.2644 37.2396 33.6097 38.0488C33.6604 38.0793 33.696 38.0904 33.7152 38.0947C33.7335 38.0988 33.7426 38.0979 33.7445 38.0977C33.7464 38.0974 33.7486 38.0971 33.7513 38.0957C33.7547 38.0939 33.7613 38.089 33.7699 38.0801C33.8009 38.0475 33.8784 37.9188 33.7767 37.6924L33.1088 36.2061C32.9033 35.7488 32.8263 35.2087 32.9642 34.668C33.0863 34.19 33.3203 33.4047 33.7035 32.6592C34.0671 31.9519 34.6691 31.0721 35.6273 30.7031C36.6697 30.302 37.7912 30.6345 38.5765 30.9805C39.4092 31.3474 40.1447 31.8558 40.556 32.1641C40.9755 32.4785 41.2483 32.9132 41.3861 33.3672L42.0756 35.6396C42.1417 35.8571 42.2749 35.9104 42.3207 35.917C42.3328 35.9187 42.3403 35.9175 42.3431 35.917C42.345 35.9167 42.3458 35.9162 42.3461 35.916C42.3465 35.9158 42.3479 35.9148 42.35 35.9131C42.3522 35.9112 42.3566 35.9081 42.3617 35.9023C42.3718 35.8907 42.3905 35.8651 42.4105 35.8184C42.9183 34.6257 43.1652 33.268 42.6234 32.041C42.269 31.2388 41.4556 30.4152 40.4594 29.6699C39.4875 28.9429 38.454 28.3724 37.809 28.0449C37.1584 27.7145 36.6455 27.1192 36.4564 26.3721L33.0619 12.9492C32.851 12.115 33.0896 11.2701 33.5863 10.6514C33.986 10.1535 34.533 9.39822 34.9506 8.55566C35.3769 7.69524 35.6118 6.85524 35.5326 6.14844C35.2949 4.03329 34.0826 2.78046 32.9252 2.03809C32.8945 2.01846 32.8717 2.01051 32.8578 2.00586ZM8.02185 15.7812L4.72986 18.3838C4.94976 18.3142 5.17074 18.2655 5.3822 18.2354C6.12139 18.1299 6.93766 18.1982 7.67517 18.4082C8.62955 18.68 9.29694 19.4208 9.7406 20.0996C10.1974 20.7988 10.5171 21.5866 10.725 22.1963C11.1163 23.345 10.5208 24.6919 9.18787 24.9619C8.16121 25.1697 6.61241 25.253 4.87634 24.5664C4.31594 24.3447 3.92035 23.9154 3.65369 23.4951C3.61665 23.4367 3.5811 23.3769 3.54724 23.3164V27.4883C3.8919 27.8438 4.0862 28.3192 4.0863 28.8154V32.8037C4.08674 33.0794 4.31052 33.3036 4.5863 33.3037H11.8344C12.1101 33.3036 12.3339 33.0794 12.3344 32.8037V32.6035C12.3344 31.2228 13.4536 30.1035 14.8344 30.1035H30.2806C30.3268 30.0101 30.3706 29.9171 30.4164 29.8281C30.5872 29.4964 30.7611 29.1858 30.9252 28.9033H13.2162C11.8356 28.9033 10.7164 27.7838 10.7162 26.4033V24.6035C10.7162 23.2228 11.8355 22.1035 13.2162 22.1035H30.5082L29.0648 15.5703H8.28845L8.02185 15.7812ZM13.2162 24.1035C12.94 24.1035 12.7162 24.3274 12.7162 24.6035V26.4033C12.7164 26.6793 12.9402 26.9033 13.2162 26.9033H31.5131L30.9115 24.1035H13.2162ZM7.12732 20.332C6.63382 20.1915 6.10152 20.1527 5.66541 20.2148C5.22176 20.2781 5.0359 20.4187 4.98376 20.4805C4.97685 20.5027 4.94725 20.5934 4.93787 20.7842C4.92603 21.0262 4.95425 21.3299 5.02869 21.6387C5.10352 21.9488 5.21506 22.2234 5.34216 22.4238C5.47348 22.6307 5.57744 22.6935 5.61169 22.707C6.90259 23.2176 8.04178 23.1534 8.79041 23.002C8.81251 22.9975 8.82166 22.9917 8.82361 22.9902C8.82599 22.9884 8.83011 22.9845 8.83435 22.9766C8.8427 22.9607 8.85704 22.9147 8.8324 22.8418C8.65058 22.3085 8.39384 21.6954 8.0658 21.1934C7.72439 20.671 7.39759 20.409 7.12732 20.332ZM4.54236 11.8232C3.53874 11.6578 2.93904 11.8053 2.59314 11.9736C2.30006 12.1164 2.12547 12.3071 2.02185 12.46C2.22167 12.8739 2.57021 13.4178 3.06189 13.7129C3.26261 13.8332 3.59983 13.9422 4.06873 14.0146C4.52299 14.0848 5.02912 14.1103 5.51501 14.1094C5.69998 14.109 5.87932 14.1031 6.04822 14.0967C6.02139 14.0504 5.99381 14.0029 5.96912 13.9541C5.68045 13.3832 5.42082 12.838 5.11755 12.3945C4.79265 11.9196 4.59362 11.832 4.54236 11.8232ZM12.6381 8.10352C12.4496 8.10367 12.2778 8.20977 12.1927 8.37793L9.56677 13.5703H27.6644C26.0274 13.0548 23.4426 11.8217 22.6215 8.98047C22.5378 8.69086 22.4804 8.39742 22.4418 8.10352H12.6381Z" fill="white"/>
</svg>
