<svg width="37" height="33" viewBox="0 0 37 33" fill="none" xmlns="http://www.w3.org/2000/svg">
<path d="M27.0889 0.000976562C27.4963 -0.0149191 27.8945 0.122379 28.2432 0.382812C29.3424 1.20467 30.4476 2.54439 30.6807 4.61816C30.7902 5.59401 30.4823 6.56561 30.1016 7.3623C29.7152 8.17068 29.2151 8.87956 28.8418 9.35645C28.6493 9.60243 28.5866 9.89429 28.6484 10.1396L31.3691 20.9033C31.4253 21.1253 31.5871 21.3279 31.8232 21.4502C32.4199 21.7589 33.3333 22.2747 34.2002 22.9355C35.0505 23.5839 35.9404 24.4351 36.3838 25.4385C36.9884 26.807 36.7903 28.1982 36.4131 29.2871C36.1028 30.1825 35.3194 30.6185 34.5205 30.5127C33.7662 30.4125 33.1015 29.8476 32.8496 29.0176L32.4482 27.6953C32.4052 27.5539 32.3309 27.4524 32.2471 27.3906C31.9337 27.1601 31.4471 26.8363 30.9375 26.6191C30.3957 26.3883 29.9971 26.3504 29.7607 26.4414C29.5417 26.526 29.2852 26.7873 29.0381 27.2529C28.8042 27.6936 28.6441 28.1941 28.5498 28.5488C28.5221 28.6534 28.5303 28.7852 28.5947 28.9287L28.8779 29.5605C29.2541 30.3976 29.0921 31.2989 28.5381 31.8672C28.2611 32.1512 27.8868 32.3467 27.459 32.3838C27.0278 32.421 26.5957 32.2928 26.2109 32.0234C25.1348 31.27 24.0174 30.1025 23.8691 28.4385C23.8 27.6614 23.964 26.8315 24.2227 26.0527H12.1895C11.8777 26.0529 11.6242 26.3064 11.624 26.6182C11.624 27.7585 10.6998 28.6833 9.55957 28.6836H3.95215C2.70981 28.6834 1.70235 27.6759 1.70215 26.4336V23.4238C1.41884 23.1428 1.25879 22.7604 1.25879 22.3613V15.9473C1.25895 15.2597 1.57309 14.6093 2.1123 14.1826L3.74805 12.8887C3.50637 12.8739 3.26 12.8496 3.01953 12.8125C2.54987 12.74 2.04119 12.6092 1.62305 12.3584C0.842827 11.89 0.389513 11.1333 0.171875 10.6885C-0.0390339 10.2571 -0.0929632 9.67737 0.225586 9.17188L0.314453 9.04004C0.540136 8.72565 0.897153 8.37374 1.44141 8.12891C2.06345 7.84917 2.87102 7.73624 3.90332 7.90625C4.62432 8.02508 5.11132 8.58942 5.41895 9.03906C5.74095 9.50981 6.01206 10.0819 6.21875 10.4912L8.45898 6.0625C8.84192 5.30561 9.61854 4.82827 10.4668 4.82812H18.4395C18.505 4.31857 18.6223 3.82471 18.7637 3.36719C18.9076 2.90139 19.1793 2.52277 19.5547 2.28223C19.9277 2.04342 20.3585 1.97035 20.7637 2.03613C21.5783 2.16876 22.2547 2.84148 22.415 3.79102L22.6104 4.9502C22.6388 5.11898 22.7165 5.24144 22.8086 5.31348C23.0925 5.5349 23.4932 5.8144 23.9062 6.00293C24.3449 6.20304 24.6534 6.23501 24.8311 6.17871C25.0072 6.12258 25.2407 5.92196 25.4873 5.52734C25.7191 5.15644 25.8918 4.72852 25.998 4.4209C26.0288 4.3317 26.0337 4.21425 25.9922 4.07715L25.5283 2.54785C25.2864 1.75017 25.4978 0.931451 26.0469 0.432617C26.323 0.181857 26.6841 0.0169403 27.0889 0.000976562ZM27.1475 1.5C27.1243 1.50102 27.0929 1.50921 27.0557 1.54297C26.9768 1.61468 26.8724 1.81358 26.9629 2.1123L27.4268 3.6416C27.5454 4.03271 27.5653 4.47748 27.416 4.91016C27.2925 5.26803 27.0767 5.81512 26.7598 6.32227C26.4577 6.8056 25.9819 7.38587 25.2871 7.60742C24.5663 7.83692 23.8236 7.61325 23.2842 7.36719C22.719 7.1093 22.2122 6.75171 21.8857 6.49707C21.4565 6.16208 21.2133 5.68256 21.1318 5.19922L20.9365 4.04102C20.8738 3.66976 20.6507 3.53745 20.5225 3.5166C20.4566 3.506 20.404 3.5189 20.3633 3.54492C20.3249 3.56959 20.251 3.63664 20.1973 3.81055C19.8893 4.80751 19.7674 5.82101 20.0166 6.68457C20.4948 8.3395 22.1262 9.11493 23.3271 9.45605C24.155 9.6911 24.9269 10.3389 25.1367 11.2881L26.5752 17.7998L26.5488 17.8047L26.5703 17.9131L26.5762 17.9121L27.5654 22.5156L27.6357 22.8447L27.4375 23.1152V23.1162C27.4368 23.1172 27.4353 23.1188 27.4336 23.1211C27.43 23.1261 27.4238 23.1345 27.416 23.1455C27.4002 23.1677 27.3766 23.2024 27.3457 23.2471C27.2839 23.3366 27.1941 23.4691 27.0869 23.6357C26.872 23.9698 26.5879 24.4378 26.3115 24.9746C25.7377 26.0893 25.2774 27.3471 25.3623 28.3047C25.4531 29.3252 26.1486 30.149 27.0713 30.7949C27.2043 30.888 27.2919 30.8929 27.3301 30.8896C27.3713 30.886 27.4177 30.8675 27.4639 30.8203C27.5567 30.7251 27.6523 30.492 27.5098 30.1748L27.2266 29.5439C27.0417 29.1325 26.9711 28.6466 27.0996 28.1631C27.2076 27.757 27.403 27.1338 27.7129 26.5498C28.0094 25.9911 28.4859 25.3256 29.2227 25.042C30.0267 24.7326 30.8949 24.9706 31.5254 25.2393C32.188 25.5216 32.7811 25.9218 33.1357 26.1826C33.5145 26.4613 33.7599 26.8517 33.8838 27.2598L34.2842 28.582C34.3774 28.8893 34.5871 29.0079 34.7178 29.0254C34.7814 29.0338 34.8272 29.0208 34.8594 29.001C34.8886 28.9828 34.9486 28.933 34.9961 28.7959C35.3052 27.9037 35.4055 26.9364 35.0117 26.0449C34.7234 25.3925 34.079 24.7288 33.291 24.1279C32.5199 23.54 31.6897 23.0708 31.1338 22.7832C30.5499 22.4809 30.0853 21.9439 29.915 21.2705L27.1943 10.5078C27.0045 9.75663 27.2192 8.99502 27.6602 8.43164C27.9966 8.00189 28.4262 7.38919 28.748 6.71582C29.0754 6.03093 29.254 5.35947 29.1895 4.78516C29.013 3.21607 28.1963 2.21994 27.3457 1.58398C27.2357 1.50184 27.1683 1.49919 27.1475 1.5ZM6.46289 12.6533L3.32617 15.1348C3.64871 14.9494 4.01169 14.847 4.34863 14.7988C4.94503 14.7138 5.60593 14.7686 6.20312 14.9385C6.91323 15.1406 7.4271 15.6709 7.78223 16.1826C8.14472 16.7051 8.40704 17.3024 8.58691 17.7939C8.96134 18.8173 8.42419 20.0336 7.21973 20.2285C6.39341 20.3621 5.234 20.3724 3.94922 19.8643C3.50768 19.6895 3.19275 19.3494 2.97852 19.0117C2.89426 18.8788 2.82318 18.7365 2.75879 18.5918V22.3604C3.04215 22.6412 3.20198 23.0239 3.20215 23.4229V26.4336C3.20235 26.8475 3.53824 27.1834 3.95215 27.1836H9.55957C9.8714 27.1833 10.124 26.93 10.124 26.6182C10.1242 25.478 11.0493 24.5529 12.1895 24.5527H24.8477C24.8919 24.4627 24.9336 24.3734 24.9775 24.2881C25.1394 23.9736 25.3033 23.6819 25.4561 23.4229H11.0439C9.80163 23.4225 8.79395 22.4153 8.79395 21.1729V20.2285C8.79408 18.9862 9.80172 17.9789 11.0439 17.9785H25.0781L23.8604 12.4648H6.70117L6.46289 12.6533ZM11.0439 19.4785C10.6301 19.4789 10.2941 19.8147 10.2939 20.2285V21.1729C10.2939 21.5868 10.6301 21.9225 11.0439 21.9229H25.9033L25.3779 19.4785H11.0439ZM5.79297 16.3809C5.37857 16.263 4.92983 16.2305 4.56055 16.2832C4.16883 16.3392 3.99611 16.4683 3.94629 16.5371C3.96106 16.5167 3.91275 16.5881 3.90137 16.8193C3.89128 17.0258 3.91498 17.2825 3.97754 17.542C4.0404 17.8026 4.13556 18.0362 4.24512 18.209C4.35751 18.386 4.45379 18.4499 4.50098 18.4688C5.4824 18.8569 6.35846 18.8474 6.97949 18.7471C7.07986 18.7308 7.13739 18.6812 7.1709 18.6182C7.20783 18.5486 7.22607 18.4391 7.17871 18.3096C7.02096 17.8785 6.81038 17.4126 6.5498 17.0371C6.28175 16.6509 6.0211 16.4459 5.79297 16.3809ZM3.66016 9.38672C2.85979 9.25488 2.35979 9.36073 2.05664 9.49707C1.75923 9.63089 1.59233 9.82004 1.5 9.96387C1.50041 9.97459 1.50445 9.99834 1.51953 10.0293C1.69031 10.3783 1.98315 10.8252 2.39453 11.0723C2.57099 11.1781 2.85892 11.27 3.24805 11.3301C3.62626 11.3885 4.04678 11.4089 4.44824 11.4082C4.64677 11.4078 4.83756 11.4018 5.01172 11.3936C4.96718 11.3251 4.92425 11.2529 4.88574 11.1768C4.6498 10.7101 4.43344 10.2553 4.18066 9.88574C3.91179 9.49283 3.733 9.399 3.66016 9.38672ZM10.4668 6.32812C10.1841 6.32827 9.92446 6.48795 9.79688 6.74023L7.66113 10.9648H23.0938C23.0383 10.9399 22.9797 10.917 22.918 10.8994C21.6255 10.5324 19.2855 9.55603 18.5762 7.10156C18.5024 6.84628 18.4527 6.58724 18.4219 6.32812H10.4668Z" fill="#009846"/>
</svg>
