<svg width="29" height="35" viewBox="0 0 29 35" fill="none" xmlns="http://www.w3.org/2000/svg">
<rect x="9.04601" y="10.6113" width="7.36863" height="9.91551" rx="1.25" transform="rotate(-45 9.04601 10.6113)" stroke="#009846" stroke-width="1.5"/>
<path d="M11.2262 13.096L5.9881 18.3341L6.64286 18.9888L0.75 24.8817L2.71429 26.846L4.02381 25.5365V24.2269H5.33333V22.9174H7.29762L10.5714 19.6436L9.91667 17.6793H11.881L13.8452 15.715M20.3929 12.4412L22.3571 11.1317L28.25 15.715V31.3936C28.25 32.4982 27.3546 33.3936 26.25 33.3936H18.4643C17.3597 33.3936 16.4643 32.4982 16.4643 31.3936V17.0246M21.0476 21.6079L22.3571 22.9174L23.6667 22.2626M20.75 29H23.75M22.3571 13.096V8.51265M16.4643 10.4769L19.7381 7.20312M18.4286 20.2984H26.2857V24.8817H18.4286V20.2984ZM18.4286 26.846H26.2857V31.1286H18.4286V26.846ZM20.7202 17.6793H23.994C24.5365 17.6793 24.9762 17.2396 24.9762 16.6972C24.9762 16.1547 24.5365 15.715 23.994 15.715H20.7202C20.1778 15.715 19.7381 16.1547 19.7381 16.6972C19.7381 17.2396 20.1778 17.6793 20.7202 17.6793Z" stroke="#009846" stroke-width="1.5" stroke-linejoin="round"/>
<circle cx="23.012" cy="4.58333" r="3.83333" stroke="#009846" stroke-width="1.5"/>
<path d="M15.8096 9.91602C16.4801 9.91602 17.0242 10.4594 17.0244 11.1299C17.0244 11.8005 16.4802 12.3447 15.8096 12.3447C15.1391 12.3445 14.5957 11.8004 14.5957 11.1299C14.5959 10.4596 15.1393 9.91624 15.8096 9.91602Z" stroke="#009846" stroke-width="1.5"/>
</svg>
