<svg width="45" height="41" viewBox="0 0 45 41" fill="none" xmlns="http://www.w3.org/2000/svg">
<path d="M19.75 5.2C19.75 5.36569 19.6157 5.5 19.45 5.5H16.8C16.6343 5.5 16.5 5.63431 16.5 5.8V7.2C16.5 7.36569 16.6343 7.5 16.8 7.5H20.543C20.833 7.50002 21.1126 7.60098 21.335 7.7832L21.4268 7.86621L23.9727 10.4121C24.0289 10.4684 24.1052 10.5 24.1848 10.5H28.75C29.4404 10.5 30 11.0596 30 11.75V13.25C30 13.3881 30.1119 13.5 30.25 13.5C30.3881 13.5 30.5 13.3881 30.5 13.25V12.6523C30.5 11.6707 31.5796 11.0719 32.4121 11.5918L35.4121 13.4668C35.7776 13.6952 36 14.0964 36 14.5273V14.7529C36 14.8905 36.1124 15 36.25 15C39.6159 15 41.6526 15.7783 42.8701 16.6377C43.4764 17.0657 43.8659 17.5043 44.1084 17.8535C44.2291 18.0274 44.3125 18.1779 44.3682 18.292C44.396 18.3491 44.4175 18.3973 44.4326 18.4346C44.4401 18.4531 44.4464 18.4694 44.4512 18.4824C44.4535 18.4888 44.4553 18.495 44.457 18.5C44.4579 18.5025 44.4592 18.5047 44.46 18.5068C44.4603 18.5077 44.4605 18.5085 44.4608 18.5093C44.4609 18.5096 44.4609 18.5099 44.4609 18.5102C44.4609 18.5111 44.4605 18.512 44.4596 18.5123C44.4492 18.5164 44.3686 18.5438 43.75 18.75L44.3627 18.5458C44.4175 18.5275 44.4766 18.5572 44.4947 18.612C44.4982 18.6225 44.5 18.6336 44.5 18.6447V37.126C44.5 37.3255 44.4515 37.5663 44.2969 37.7861C43.8005 38.4918 41.866 40.5 36.25 40.5C30.8678 40.5 28.4775 38.5552 27.834 37.9053C27.593 37.6618 27.5 37.3513 27.5 37.0742V26.8C27.5 26.6343 27.3657 26.5 27.2 26.5H25.5968C25.5696 26.5 25.5498 26.5226 25.5498 26.5498V29.9609C25.5498 30.6011 25.0471 31.2034 24.4106 31.2949C24.4104 31.2949 24.4102 31.2951 24.4102 31.2954C24.4102 31.2957 24.41 31.2959 24.4097 31.296L23.792 31.3838L23.7842 31.3848L23.7754 31.3857L23.3012 31.4267C23.2381 31.4321 23.1835 31.4727 23.1601 31.5316C23.1373 31.5891 23.1481 31.6545 23.1881 31.7016L23.5039 32.0732L23.5107 32.082L23.5176 32.0898L23.8818 32.5869C24.0406 32.8038 24.1377 33.0584 24.1377 33.3604C24.1377 33.3857 24.1351 33.4241 24.126 33.4736C24.1091 33.8104 23.9776 34.0975 23.7412 34.334L21.3255 36.7506C21.3253 36.7509 21.3252 36.7512 21.3252 36.7515C21.3252 36.7518 21.3251 36.7521 21.3249 36.7523C21.1179 36.9588 20.8257 37.126 20.4619 37.126H20.3516C20.1183 37.1259 19.8829 37.0793 19.6689 36.9512L19.5791 36.8916L19.082 36.5273L19.0713 36.5195L19.0605 36.5098L18.7055 36.1952C18.6554 36.1507 18.5835 36.1404 18.522 36.1671C18.4641 36.1922 18.4243 36.2465 18.4189 36.3094L18.3779 36.7861V36.7939L18.377 36.8027L18.2881 37.4209C18.1981 38.0493 17.5917 38.5498 16.9541 38.5498H13.5459C12.912 38.5498 12.2917 38.0529 12.2012 37.4209L12.1123 36.8027L12.1113 36.7939L12.1104 36.7861L12.0679 36.3C12.0628 36.2409 12.028 36.1908 11.9738 36.1668C11.9151 36.1409 11.844 36.1497 11.796 36.1924L11.4395 36.5098L11.4287 36.5195L11.418 36.5273L10.9209 36.8916C10.703 37.0513 10.4422 37.1367 10.1592 37.1367H10.0596C9.69855 37.1367 9.40083 36.9771 9.1748 36.751L6.75879 34.334C6.51999 34.0953 6.41137 33.7908 6.38482 33.4743C6.38479 33.4739 6.38493 33.4735 6.38523 33.4732C6.38555 33.4728 6.3857 33.4724 6.38562 33.4719C6.3749 33.4069 6.37305 33.3514 6.37305 33.3271C6.37306 33.0612 6.44412 32.8095 6.60742 32.5869L6.97168 32.0898L6.97949 32.0791L6.98926 32.0684L7.31022 31.7057C7.35275 31.6576 7.36557 31.5939 7.34111 31.5346C7.31727 31.4768 7.26148 31.4322 7.19915 31.4269L6.71387 31.3857L6.69629 31.3838L6.08887 31.2949C5.46285 31.2035 4.9502 30.6032 4.9502 29.9609V26.5498C4.95028 26.2205 5.08513 25.9089 5.28516 25.6719C5.48477 25.4354 5.76743 25.252 6.08887 25.2051L6.69629 25.1162L6.71387 25.1143L7.20084 25.072C7.26086 25.0668 7.31314 25.0264 7.33641 24.9708C7.36034 24.9136 7.34963 24.8492 7.30854 24.8028L6.98926 24.4424L6.97949 24.4316L6.97168 24.4209L6.60742 23.9238C6.56004 23.8591 6.5217 23.7918 6.49072 23.7229C6.43397 23.5967 6.31766 23.5 6.1793 23.5H4.75C4.05964 23.5 3.5 22.9404 3.5 22.25V17.8C3.5 17.6343 3.36569 17.5 3.2 17.5H1.8C1.63431 17.5 1.5 17.6343 1.5 17.8V21.95C1.5 22.1157 1.36569 22.25 1.2 22.25H0.3C0.134315 22.25 0 22.1157 0 21.95V11.55C0 11.3843 0.134315 11.25 0.3 11.25H1.2C1.36569 11.25 1.5 11.3843 1.5 11.55V15.7C1.5 15.8657 1.63431 16 1.8 16H3.2C3.36569 16 3.5 15.8657 3.5 15.7V11.25C3.5 10.5596 4.05964 10 4.75 10H7.03908C7.16175 10 7.27206 9.92531 7.31762 9.81142L7.92773 8.28613L8.01172 8.11621C8.23383 7.73862 8.64156 7.5 9.08887 7.5H14.7C14.8657 7.5 15 7.36569 15 7.2V5.8C15 5.63431 14.8657 5.5 14.7 5.5H12.05C11.8843 5.5 11.75 5.36569 11.75 5.2V4.3C11.75 4.13431 11.8843 4 12.05 4H19.45C19.6157 4 19.75 4.13431 19.75 4.3V5.2ZM29 36.8087C29 36.8926 29.0339 36.9724 29.0977 37.027C29.7725 37.6049 31.8494 39 36.25 39C40.7827 39 42.4584 37.6103 42.9305 37.0893C42.9771 37.0379 43 36.9709 43 36.9015V36.578C43 36.3412 42.7366 36.1949 42.527 36.3051C42.2299 36.4612 41.89 36.6126 41.501 36.751C40.788 37.0046 39.9139 37.2184 38.8428 37.3516C38.0828 37.4461 37.2228 37.5 36.25 37.5C35.1921 37.5 34.2422 37.4173 33.3945 37.2803C32.3562 37.1124 31.4728 36.8636 30.7334 36.585C30.2477 36.4019 29.8252 36.2057 29.4622 36.0128C29.256 35.9032 29 36.0488 29 36.2823V36.8087ZM13.7764 19.9512L13.7441 20.208L13.6572 21.3525C13.6469 21.4863 13.5485 21.5975 13.417 21.624C13.2241 21.6625 13.0393 21.7293 12.8389 21.8076L12.8291 21.8115L12.8193 21.8145C12.7545 21.8348 12.6099 21.8844 12.3984 21.9785C12.3206 22.0131 12.2097 22.0624 12.0791 22.1338L11.8359 22.2656C11.7286 22.3246 11.5957 22.312 11.501 22.2344L10.6191 21.5059L10.6162 21.5039L10.4131 21.332L10.3644 21.2969C10.245 21.2108 10.0807 21.224 9.97667 21.3281L8.33499 22.9706C8.22916 23.0765 8.21759 23.2442 8.30787 23.3636L8.33496 23.3994L8.51143 23.6305C8.51155 23.6306 8.51144 23.6309 8.51125 23.6309C8.51105 23.6309 8.51094 23.6311 8.51107 23.6312L9.25098 24.502C9.33723 24.6027 9.34677 24.7482 9.27441 24.8594C9.13464 25.0745 9.03759 25.2482 8.98242 25.3896L8.8125 25.8242L8.61426 26.4531C8.57722 26.5695 8.47238 26.6527 8.35059 26.6621L7.21484 26.75L6.9375 26.7715L6.88001 26.7814C6.73606 26.8061 6.63086 26.931 6.63086 27.077V29.4234C6.63086 29.5714 6.73881 29.6973 6.8851 29.7199L6.93457 29.7275L8.35059 29.8389C8.47308 29.8483 8.57771 29.9315 8.61426 30.0488L8.80859 30.6758L8.98242 31.1211C9.03759 31.2626 9.1345 31.4367 9.27441 31.6523C9.34631 31.7631 9.33624 31.909 9.25098 32.0098L8.50098 32.8926L8.49707 32.8975L8.33398 33.0801L8.29654 33.1318C8.21008 33.2511 8.22309 33.4156 8.32724 33.5198L9.97682 35.171C10.0808 35.2751 10.245 35.2884 10.3644 35.2024L10.4189 35.1631L10.6162 34.9961L11.498 34.2471C11.5991 34.161 11.7452 34.1512 11.8564 34.2236C12.0669 34.3607 12.2458 34.4575 12.3926 34.5186L12.8359 34.7021L13.4482 34.8955C13.565 34.9321 13.6478 35.0362 13.6572 35.1582L13.7451 36.2793L13.7754 36.5586L13.7843 36.6149C13.8073 36.7607 13.933 36.8682 14.0806 36.8682H16.4186C16.5666 36.8682 16.6925 36.7602 16.7151 36.614L16.7236 36.5586L16.7432 36.2852V36.2842L16.832 35.1582C16.8414 35.0359 16.9248 34.9314 17.042 34.8955L17.6689 34.6992C17.6928 34.688 17.7162 34.6766 17.7344 34.6689C17.7747 34.6521 17.8232 34.6338 17.8701 34.6152C17.9703 34.5756 18.0575 34.5408 18.0977 34.5225C18.2545 34.4504 18.4386 34.357 18.6436 34.2236C18.7548 34.1512 18.9009 34.161 19.002 34.2471L19.8779 34.9912L20.0986 35.168L20.1265 35.1891C20.246 35.2794 20.4138 35.2678 20.5197 35.1619L22.1609 33.5198C22.2651 33.4156 22.2782 33.2511 22.1917 33.1317L22.1543 33.0801L21.9922 32.8975L21.9834 32.8877L21.2666 32.0039C21.1916 31.9118 21.1779 31.7833 21.2324 31.6777C21.3954 31.3622 21.4846 31.1689 21.5127 31.1064C21.5732 30.9724 21.6162 30.8711 21.6445 30.8008C21.6587 30.7657 21.6685 30.7383 21.6758 30.7188C21.6794 30.7091 21.6827 30.7018 21.6846 30.6963C21.6854 30.6938 21.6892 30.683 21.69 30.6805L21.6914 30.6758L21.6963 30.6631C21.7709 30.4831 21.8388 30.2861 21.8779 30.0811C21.9033 29.9485 22.0148 29.8492 22.1494 29.8389L23.2959 29.75L23.5508 29.7295L23.6037 29.7212C23.7497 29.6984 23.8574 29.5727 23.8574 29.4248V27.0754C23.8574 26.9296 23.7526 26.8049 23.609 26.7799L23.5498 26.7695L23.2964 26.75C23.2961 26.75 23.2959 26.7498 23.2959 26.7495C23.2959 26.7492 23.2957 26.749 23.2954 26.749L22.1494 26.6621C22.0157 26.6517 21.9045 26.5534 21.8779 26.4219C21.8388 26.2263 21.7748 26.0375 21.6963 25.8477L21.6914 25.8359L21.6875 25.8242C21.6556 25.7232 21.6023 25.5913 21.5156 25.4102C21.4815 25.3389 21.3949 25.1483 21.2324 24.834C21.178 24.728 21.1914 24.5992 21.2666 24.5068L21.9775 23.6309L22.1543 23.3994L22.1813 23.3633C22.2706 23.2439 22.2587 23.077 22.1533 22.9715L20.5193 21.3368C20.4136 21.231 20.2461 21.2193 20.1267 21.3092L20.0977 21.3311L19.8785 21.5084C19.8782 21.5086 19.8777 21.5086 19.8774 21.5083C19.8772 21.508 19.8767 21.508 19.8764 21.5083L18.999 22.2344C18.9062 22.3106 18.7755 22.3239 18.6689 22.2686L18.4155 22.1369C18.4152 22.1368 18.415 22.1365 18.415 22.1362C18.415 22.1359 18.4149 22.1357 18.4146 22.1355L18.0893 21.9739C18.089 21.9737 18.0889 21.9734 18.0889 21.9731C18.0889 21.9728 18.0887 21.9726 18.0884 21.9724C17.9627 21.9095 17.8259 21.8592 17.6816 21.8145L17.6719 21.8115L17.6611 21.8076C17.4704 21.733 17.2775 21.6625 17.0752 21.624C16.9425 21.5989 16.8418 21.4873 16.832 21.3525L16.7432 20.1953L16.7236 19.9512L16.7137 19.8865C16.6913 19.74 16.5654 19.6318 16.4172 19.6318H14.0828C13.9346 19.6318 13.8087 19.74 13.7863 19.8865L13.7764 19.9512ZM38 25.2506C38 25.0745 37.849 24.9365 37.6733 24.9491C37.5475 24.9582 37.4195 24.9661 37.2893 24.9728C37.128 24.9811 37 25.1134 37 25.275V35.6764C37 35.8459 37.1404 35.982 37.3097 35.9739C37.4515 35.9672 37.5898 35.9591 37.7249 35.9497C37.8805 35.939 38 35.8088 38 35.6528V25.2506ZM34.2646 35.62C34.2646 35.7721 34.3785 35.9004 34.5298 35.9156C34.7424 35.9368 34.9617 35.9543 35.1877 35.9677C35.358 35.9778 35.5 35.8413 35.5 35.6707V25.276C35.5 25.1144 35.372 24.9821 35.2106 24.9738C35.0001 24.9629 34.7949 24.9486 34.5946 24.9317C34.4178 24.9168 34.2646 25.0553 34.2646 25.2327V35.62ZM40.5 24.8847C40.5 24.6869 40.312 24.5433 40.1197 24.5891C39.9977 24.6182 39.8726 24.646 39.7443 24.6726C39.6029 24.7018 39.5 24.8253 39.5 24.9697V35.37C39.5 35.5578 39.6707 35.6997 39.8542 35.6594C40.0036 35.6266 40.1462 35.592 40.2824 35.5561C40.4117 35.522 40.5 35.404 40.5 35.2703V24.8847ZM31.7471 35.1314C31.7471 35.2615 31.8308 35.3771 31.9553 35.4148C32.0978 35.4578 32.2456 35.4994 32.3988 35.5394C32.5854 35.588 32.7646 35.445 32.7646 35.2522V24.934C32.7646 24.7903 32.6627 24.6671 32.522 24.6375C32.3872 24.6091 32.2556 24.5794 32.1272 24.5485C31.935 24.5022 31.7471 24.6459 31.7471 24.8436V35.1314ZM43 23.9723C43 23.7352 42.736 23.589 42.5272 23.7014C42.416 23.7612 42.2991 23.8207 42.176 23.8794C42.0695 23.9302 42 24.0369 42 24.1549V34.3673C42 34.5975 42.2483 34.7402 42.4337 34.6037C42.5661 34.5062 42.6721 34.4147 42.7559 34.333C42.8372 34.2536 42.8984 34.1824 42.9441 34.1237C42.9818 34.0753 43 34.0149 43 33.9535V23.9723ZM29 33.7803C29 33.8688 29.0387 33.9532 29.1077 34.0087C29.1737 34.0619 29.2508 34.1213 29.3398 34.1846C29.4723 34.2787 29.6308 34.3825 29.816 34.4918C30.0094 34.606 30.2471 34.4618 30.2471 34.2371V24.1355C30.2471 24.0149 30.1747 23.9064 30.0645 23.8574C29.8487 23.7613 29.6492 23.6636 29.4654 23.5661C29.2582 23.4563 29 23.6022 29 23.8366V33.7803ZM23.8184 33.5459C23.8143 33.5774 23.8096 33.6084 23.8027 33.6387C23.8165 33.5778 23.8244 33.5144 23.8271 33.4482L23.8184 33.5459ZM15.7441 24.9502C16.7853 24.9502 17.6874 25.322 18.4336 26.0693C19.1786 26.8157 19.5498 27.7069 19.5498 28.75C19.5498 29.8026 19.1798 30.7069 18.4316 31.4443C17.686 32.1786 16.785 32.5498 15.7441 32.5498C14.6932 32.5498 13.7911 32.179 13.0557 31.4424C12.32 30.7055 11.9502 29.8022 11.9502 28.75C11.9502 27.7076 12.3237 26.8075 13.0547 26.0693C13.7924 25.3242 14.6921 24.9502 15.7441 24.9502ZM14.7119 32.1064C14.7297 32.1117 14.7477 32.1161 14.7656 32.1211C14.7375 32.1133 14.7095 32.1052 14.6816 32.0967C14.6918 32.0998 14.7017 32.1034 14.7119 32.1064ZM14.5518 32.0547C14.5623 32.0584 14.5734 32.0608 14.584 32.0645C14.5519 32.0535 14.52 32.0422 14.4883 32.0303C14.5095 32.0382 14.5304 32.0471 14.5518 32.0547ZM8.83398 31.5039C8.84012 31.515 8.84713 31.5258 8.85352 31.5371C8.81919 31.4763 8.78766 31.4183 8.76074 31.3623L8.83398 31.5039ZM15.7441 26.6602C15.1582 26.6602 14.6688 26.8657 14.249 27.2861C13.8404 27.6956 13.6357 28.1857 13.6357 28.75C13.6357 29.3407 13.8374 29.8356 14.249 30.248C14.661 30.6607 15.1551 30.8632 15.7441 30.8633C16.3071 30.8633 16.7972 30.6575 17.2061 30.248C17.6254 29.8279 17.8311 29.3375 17.8311 28.75C17.8311 28.1887 17.6227 27.7025 17.2061 27.2852C16.7893 26.8677 16.304 26.6602 15.7441 26.6602ZM14.2188 26.9062H14.2197H14.2188ZM13.5293 26.0391C13.4935 26.0691 13.4589 26.101 13.4238 26.1328C13.5029 26.0612 13.5833 25.9935 13.666 25.9307L13.5293 26.0391ZM8.57227 10.7139C8.38244 11.1884 7.92226 11.5 7.41113 11.5H5.3C5.13431 11.5 5 11.6343 5 11.8V21.7C5 21.8657 5.13431 22 5.3 22H6.81124C6.89083 22 6.96716 21.9684 7.02342 21.9121L9.1748 19.7598C9.40023 19.5342 9.69184 19.3633 10.0596 19.3633H10.1592C10.4421 19.3633 10.703 19.4485 10.9209 19.6084L11.418 19.9727L11.4258 19.9795L11.4346 19.9863L11.8123 20.3073C11.8558 20.3442 11.9159 20.3544 11.9691 20.3338C12.0245 20.3124 12.0628 20.2613 12.068 20.2022L12.1104 19.7148L12.1123 19.6973L12.2012 19.0898L12.2246 18.9717C12.3711 18.3902 12.9483 17.9502 13.5459 17.9502H16.9541C17.5951 17.9502 18.1957 18.4545 18.2881 19.0898L18.376 19.6973L18.3779 19.7061L18.3789 19.7148L18.4191 20.195C18.4244 20.2578 18.4653 20.312 18.5243 20.3343C18.5798 20.3552 18.6423 20.3444 18.6876 20.3061L19.0654 19.9863L19.0742 19.9795L19.082 19.9727L19.5791 19.6084C19.8093 19.4397 20.0758 19.3633 20.3633 19.3633H20.4619C20.839 19.3633 21.1194 19.5542 21.3252 19.7598L23.7412 22.1768L23.8203 22.2627C23.994 22.4649 24.1087 22.7104 24.125 23.0107C24.135 23.0625 24.1377 23.103 24.1377 23.1289C24.1376 23.4211 24.0569 23.685 23.8818 23.9238L23.5176 24.4209L23.5107 24.4297L23.5039 24.4375L23.1633 24.8387C23.1398 24.8664 23.1335 24.9049 23.1471 24.9387C23.1621 24.9757 23.198 25 23.238 25H27.2C27.3657 25 27.5 24.8657 27.5 24.7V18.607C27.5 18.5848 27.5052 18.5629 27.5151 18.543C27.5505 18.4723 27.6364 18.4436 27.7071 18.479L28.25 18.75C27.633 18.4415 27.584 18.416 27.5803 18.4134C27.5801 18.4132 27.5801 18.4129 27.5801 18.4126C27.5801 18.4123 27.5802 18.412 27.5803 18.4117C27.5808 18.4109 27.5816 18.41 27.582 18.4092L27.5928 18.3877C27.5991 18.3759 27.6073 18.361 27.6172 18.3438C27.637 18.3092 27.6639 18.2639 27.6992 18.21C27.7699 18.102 27.8739 17.9588 28.0176 17.792C28.3055 17.4577 28.7521 17.0331 29.4121 16.6162C30.4529 15.9588 31.9985 15.3365 34.2462 15.1C34.3897 15.0849 34.5 14.9647 34.5 14.8205C34.5 14.7244 34.4505 14.6351 34.369 14.5841L32.459 13.3904C32.2592 13.2655 32 13.4092 32 13.6448V13.75C32 14.4404 31.4404 15 30.75 15H29.75C29.0596 15 28.5 14.4404 28.5 13.75V12.3C28.5 12.1343 28.3657 12 28.2 12H23.957C23.6255 12 23.3076 11.8682 23.0732 11.6338L20.5273 9.08787C20.4711 9.03161 20.3948 9 20.3152 9H9.46092C9.33825 9 9.22794 9.07469 9.18238 9.18858L8.57227 10.7139ZM29 21.3105C29 21.3946 29.0348 21.4752 29.0983 21.5302C29.1622 21.5858 29.2383 21.6485 29.3281 21.7158C29.7101 22.0021 30.333 22.3863 31.2559 22.7246C31.8933 22.9583 32.6767 23.1711 33.626 23.3145C34.3889 23.4297 35.2603 23.5 36.25 23.5C37.1572 23.5 37.9513 23.4409 38.6445 23.3428C39.6058 23.2066 40.374 22.9955 40.9814 22.7627C41.8549 22.4279 42.4039 22.0453 42.7236 21.7666C42.804 21.6966 42.8698 21.6319 42.9232 21.5759C42.9737 21.5229 43 21.4518 43 21.3785V21.0457C43 20.8766 42.8067 20.7803 42.666 20.874C41.4045 21.715 39.3812 22.5 36.25 22.5C33.1184 22.5 30.9843 21.7155 29.6143 20.8936C29.571 20.8676 29.5285 20.8416 29.4869 20.8155C29.2793 20.6858 29 20.8298 29 21.0746V21.3105ZM36.25 16.5C33.1191 16.5 31.2627 17.2208 30.2129 17.8838C29.8671 18.1022 29.6046 18.3176 29.4093 18.5043C29.2932 18.6153 29.2986 18.7994 29.419 18.9057C29.655 19.1139 29.9733 19.3589 30.3857 19.6064C31.5157 20.2844 33.3818 21 36.25 21C39.1188 21 40.8455 20.285 41.834 19.626C42.3317 19.2942 42.6537 18.9687 42.8457 18.7383C42.8621 18.7186 42.8621 18.6897 42.8471 18.669C42.6942 18.4578 42.4329 18.1644 42.0049 17.8623C41.0973 17.2218 39.3838 16.5 36.25 16.5ZM36.25 17C38.5268 17 39.4606 17.6587 39.8242 18.2295C40.0272 18.5483 40.0272 18.9517 39.8242 19.2705C39.4606 19.8413 38.5268 20.5 36.25 20.5C33.9732 20.5 33.0394 19.8413 32.6758 19.2705C32.4728 18.9517 32.4728 18.5483 32.6758 18.2295L32.751 18.1211C33.1617 17.5785 34.1158 17 36.25 17ZM36.25 18.5C35.8299 18.5 35.4828 18.5254 35.1971 18.5651C34.9217 18.6033 34.9217 18.8967 35.1971 18.9349C35.4828 18.9746 35.8299 19 36.25 19C36.6692 19 37.0157 18.9746 37.3009 18.9351C37.5765 18.8969 37.5765 18.6031 37.3009 18.5649C37.0157 18.5254 36.6692 18.5 36.25 18.5ZM35.25 0C35.9404 0 36.5 0.559644 36.5 1.25V1.7C36.5 1.86569 36.6343 2 36.8 2H40.75C41.4404 2 42 2.55964 42 3.25C42 3.38807 42.1119 3.5 42.25 3.5H43.25C43.9404 3.5 44.5 4.05964 44.5 4.75V5.25C44.5 5.94036 43.9404 6.5 43.25 6.5H42.25C42.1119 6.5 42 6.61193 42 6.75C42 7.44036 41.4404 8 40.75 8H36.8C36.6343 8 36.5 8.13431 36.5 8.3V8.75C36.5 9.44036 35.9404 10 35.25 10H34.25C33.7313 10 33.2866 9.68397 33.0975 9.23398C33.0423 9.10245 32.9229 9 32.7802 9H32.25C31.7313 9 31.2866 8.68397 31.0975 8.23398C31.0423 8.10245 30.9229 8 30.7802 8H25.25C24.7313 8 24.2866 7.68397 24.0975 7.23398C24.0423 7.10245 23.9229 7 23.7802 7H22.75C22.0596 7 21.5 6.44036 21.5 5.75V5.05C21.5 4.88431 21.6343 4.75 21.8 4.75H22.7C22.8657 4.75 23 4.88431 23 5.05V5.375C23 5.44404 23.056 5.5 23.125 5.5C23.194 5.5 23.25 5.44404 23.25 5.375V4.3C23.25 4.13431 23.3843 4 23.55 4H23.7C23.8657 4 24 3.86569 24 3.7V3.25C24 2.55964 24.5596 2 25.25 2H30.7802C30.9229 2 31.0423 1.89755 31.0975 1.76602C31.2866 1.31603 31.7313 1 32.25 1H32.7802C32.9229 1 33.0423 0.897549 33.0975 0.766016C33.2866 0.316026 33.7313 0 34.25 0H35.25ZM34.5 8.25C34.5 8.38807 34.6119 8.5 34.75 8.5C34.8881 8.5 35 8.38807 35 8.25V1.75C35 1.61193 34.8881 1.5 34.75 1.5C34.6119 1.5 34.5 1.61193 34.5 1.75V8.25ZM32.5 7.25C32.5 7.38807 32.6119 7.5 32.75 7.5C32.8881 7.5 33 7.38807 33 7.25V2.75C33 2.61193 32.8881 2.5 32.75 2.5C32.6119 2.5 32.5 2.61193 32.5 2.75V7.25ZM25.5 6.25C25.5 6.38807 25.6119 6.5 25.75 6.5C25.8881 6.5 26 6.38807 26 6.25V3.75C26 3.61193 25.8881 3.5 25.75 3.5C25.6119 3.5 25.5 3.61193 25.5 3.75V6.25ZM27.5 6.2C27.5 6.36569 27.6343 6.5 27.8 6.5H28.2C28.3657 6.5 28.5 6.36569 28.5 6.2V3.8C28.5 3.63431 28.3657 3.5 28.2 3.5H27.8C27.6343 3.5 27.5 3.63431 27.5 3.8V6.2ZM30 6.2C30 6.36569 30.1343 6.5 30.3 6.5H30.7C30.8657 6.5 31 6.36569 31 6.2V3.8C31 3.63431 30.8657 3.5 30.7 3.5H30.3C30.1343 3.5 30 3.63431 30 3.8V6.2ZM36.5 6.2C36.5 6.36569 36.6343 6.5 36.8 6.5H40.2C40.3657 6.5 40.5 6.36569 40.5 6.2V3.8C40.5 3.63431 40.3657 3.5 40.2 3.5H36.8C36.6343 3.5 36.5 3.63431 36.5 3.8V6.2Z" fill="white"/>
</svg>
