<svg width="32" height="32" viewBox="0 0 32 32" fill="none" xmlns="http://www.w3.org/2000/svg">
<path d="M14.8669 9.7011C16.6955 8.03444 18.0744 6.82132 18.4765 6.46916C18.5566 6.39897 18.6428 6.33751 18.7349 6.28413L23.083 3.76684C23.736 3.38878 24.5616 3.49697 25.0952 4.03053L27.4075 6.34286C27.941 6.87641 28.0492 7.70201 27.6712 8.35502L25.1705 12.6743C25.1061 12.7855 25.0299 12.8881 24.9416 12.9814C24.5434 13.4025 23.2789 14.7366 21.6209 16.4551M14.8669 9.7011L19.774 11.664L21.6209 16.4551M14.8669 9.7011C13.0236 11.3812 10.7235 13.5221 8.50658 15.7065M21.6209 16.4551C19.8352 18.306 17.5931 20.6028 15.4854 22.6854M8.50658 15.7065C6.95919 17.2312 5.45235 18.7771 4.16971 20.2023C3.4437 21.009 3.6429 22.3711 4.03411 23.5491C4.54678 25.093 5.73533 26.3241 7.24622 26.9271C8.5148 27.4333 10.0348 27.7596 10.9414 26.974C12.1583 25.9192 13.7778 24.3726 15.4854 22.6854M8.50658 15.7065L13.8856 17.5524L15.4854 22.6854M28.9011 3.12573C28.3683 2.59292 27.8506 2.13543 27.3683 1.74647C25.6537 0.363465 23.3224 0.318352 21.3443 1.28777C20.3861 1.75737 19.3799 2.29774 18.5964 2.83139C15.6398 4.84529 14.2393 6.38357 11.5303 8.71984C8.41264 11.4085 7.08067 11.9916 4.16963 14.9026C1.81425 17.258 0.930985 19.319 0.636562 22.5576C0.448086 24.6309 2.47643 26.7529 3.87521 28.1516C5.27399 29.5504 6.52501 30.8015 8.88039 30.8015C12.0833 30.8015 14.18 29.0349 16.5354 26.6795C19.4464 23.7685 20.0297 23.0255 22.7183 19.9079C25.0546 17.1988 26.3884 15.6482 28.6068 12.8418C29.1902 12.1037 29.7956 11.1237 30.3228 10.1903C31.3696 8.33736 31.4507 6.09193 30.1014 4.44615C29.7644 4.03517 29.3674 3.59199 28.9011 3.12573Z" stroke="#009846" stroke-width="1.24913"/>
</svg>
