<svg width="26" height="30" viewBox="0 0 26 30" fill="none" xmlns="http://www.w3.org/2000/svg">
<path d="M13.0314 11.6633L13.6639 14.0237L15.5923 14.1394M7.81435 19.9141L11.2425 21.8933M12.6507 1.77148L19.8986 0.768972C20.805 0.643612 21.6808 1.14927 22.0254 1.99685L24.7812 8.77501C25.0136 9.34674 24.9691 9.99377 24.6605 10.5283L14.4861 28.1508C13.9338 29.1074 12.7106 29.4351 11.754 28.8829L1.75033 23.1072C0.793748 22.5549 0.465998 21.3318 1.01828 20.3752L11.1927 2.75262C11.5013 2.21813 12.0393 1.85604 12.6507 1.77148ZM16.5451 4.71337L20.2862 6.87327C20.906 7.23114 21.1184 8.02372 20.7605 8.64356C20.4027 9.2634 19.6101 9.47577 18.9902 9.11791L15.2492 6.95801C14.6293 6.60015 14.417 5.80756 14.7748 5.18772C15.1327 4.56788 15.9253 4.35551 16.5451 4.71337ZM10.9025 8.43892L19.8811 13.6227L16.8572 18.8602L7.87866 13.6764L10.9025 8.43892ZM6.58272 15.921L15.5613 21.1048L12.7358 25.9987L3.75726 20.8149L6.58272 15.921Z" stroke="#009846" stroke-width="1.5" stroke-linejoin="round"/>
</svg>
