<svg width="33" height="34" viewBox="0 0 33 34" fill="none" xmlns="http://www.w3.org/2000/svg">
<path d="M24.4633 4.63867C20.2104 4.63867 16.7627 8.08634 16.7627 12.3393C16.7627 15.4961 18.6623 18.2093 21.3808 19.3981V21.965L22.859 23.5693L21.3808 25.1736V26.7778L22.859 28.3821L21.3808 29.9864V32.8741H24.4633L27.0301 29.9864V19.6017C30.021 18.5445 32.1639 15.6921 32.1639 12.3393C32.1639 8.08634 28.7162 4.63867 24.4633 4.63867Z" stroke="#009846" stroke-width="1.5"/>
<path d="M21.0808 21.1941C18.9867 22.1944 16.5343 22.1944 14.4403 21.1941L7.09713 28.5372L3.24015 28.7641L1.06055 26.5845L3.10247 24.5426L5.28208 24.4534L5.37128 22.2738L6.50568 21.1394L8.68529 21.0502L8.77449 18.8706L10.5895 17.0555C9.50784 14.2926 10.0831 11.0309 12.3154 8.79863C13.222 7.89202 14.2984 7.25873 15.4423 6.89876M15.4423 6.89876C16.6897 6.50618 18.0174 6.43867 19.2924 6.69624M15.4423 6.89876V5.44585C15.4423 2.85229 17.5448 0.749838 20.1384 0.75C22.7317 0.750161 24.834 2.85252 24.834 5.44585V9.4" stroke="#009846" stroke-width="1.5"/>
<circle cx="24.7207" cy="11.7881" r="2.13772" stroke="#009846" stroke-width="1.5"/>
</svg>
