<svg width="13" height="17" viewBox="0 0 13 17" fill="none" xmlns="http://www.w3.org/2000/svg">
<path d="M6.45605 0.75C9.60024 0.75 12.1631 3.32789 12.1631 6.52441C12.1631 7.22997 11.8364 8.15481 11.249 9.20898C10.6728 10.2432 9.89441 11.3163 9.10156 12.2969C8.31084 13.2748 7.51792 14.1452 6.92188 14.7715C6.74896 14.9532 6.59029 15.1114 6.45605 15.248C6.32193 15.1115 6.16392 14.953 5.99121 14.7715C5.39517 14.1452 4.60224 13.2748 3.81152 12.2969C3.01867 11.3163 2.24033 10.2432 1.66406 9.20898C1.07672 8.15481 0.750009 7.22997 0.75 6.52441C0.75 3.32801 3.31204 0.7502 6.45605 0.75Z" stroke="#009846" stroke-width="1.5"/>
<circle cx="6.52477" cy="6.52477" r="1.69664" stroke="#009846" stroke-width="1.5"/>
</svg>
