<svg width="21" height="29" viewBox="0 0 21 29" fill="none" xmlns="http://www.w3.org/2000/svg">
<path d="M11.7502 22.0444V23.8455C11.7502 24.6125 11.1284 25.2344 10.3613 25.2344C9.59427 25.2344 8.97244 24.6125 8.97244 23.8455V22.0934C8.97244 21.7043 8.87857 21.3208 8.69879 20.9756L8.52405 20.6401C8.13124 19.8859 8.28285 18.9631 8.89629 18.3741C9.57904 17.7187 10.6382 17.6604 11.3888 18.2368L11.4892 18.3139C12.2828 18.9234 12.5244 20.0146 12.0622 20.9021L12.0012 21.0191C11.8363 21.3357 11.7502 21.6874 11.7502 22.0444Z" stroke="#009846" stroke-width="1.5" stroke-linejoin="round"/>
<path d="M10.25 0.75C14.2541 0.75 17.5 3.99594 17.5 8V12.25C17.5 12.8023 17.0523 13.25 16.5 13.25C15.9477 13.25 15.5 12.8023 15.5 12.25V7.75C15.5 4.85051 13.1495 2.5 10.25 2.5C7.3505 2.5 5 4.8505 5 7.75V12.25C5 12.8023 4.55228 13.25 4 13.25C3.44772 13.25 3 12.8023 3 12.25V8C3 3.99594 6.24594 0.75 10.25 0.75Z" stroke="#009846" stroke-width="1.5"/>
<path d="M0.75 13.5V25C0.75 26.6569 2.09315 28 3.75 28H16.3517C17.9683 28 19.2942 26.719 19.3499 25.1034L19.75 13.5" stroke="#009846" stroke-width="1.5" stroke-linejoin="round"/>
</svg>
