<svg width="31" height="26" viewBox="0 0 31 26" fill="none" xmlns="http://www.w3.org/2000/svg">
<path d="M18.5 20.1904C19.6679 21.3112 21.2535 22 23 22C26.5899 22 29.5 19.0899 29.5 15.5C29.5 11.9101 26.5899 9 23 9C19.4101 9 16.5 11.9101 16.5 15.5C16.5 17.3434 17.2673 19.0075 18.5 20.1904ZM18.5 20.1904L14 24.5" stroke="#009846" stroke-width="2"/>
<path d="M4.5 1H1V21H4.5M22 1H25V9" stroke="#009846" stroke-width="2"/>
<rect x="6" y="5" width="2" height="2" fill="#009846"/>
<rect x="12" y="5" width="2" height="2" fill="#009846"/>
<rect x="18" y="5" width="2" height="2" fill="#009846"/>
<rect x="12" y="10" width="2" height="2" fill="#009846"/>
<rect x="6" y="10" width="2" height="2" fill="#009846"/>
<rect x="6" y="15" width="2" height="2" fill="#009846"/>
<rect x="12" y="15" width="2" height="2" fill="#009846"/>
</svg>
