<svg width="34" height="34" viewBox="0 0 34 34" fill="none" xmlns="http://www.w3.org/2000/svg">
<path d="M18.8839 18.25L26.25 11.375V8.25H29.375L32.5 5.125V0.75H28.75L15 14.4219M18.8839 18.25L16.875 20.125L13.125 16.375L15 14.4219M18.8839 18.25L20.4551 19.8794C21.5904 21.0567 21.5734 22.9266 20.4169 24.0831L13.4294 31.0706C12.2354 32.2646 10.2916 32.2383 9.13025 31.0125L2.06642 23.5562C0.925684 22.3521 0.978538 20.4508 2.18441 19.3119L9.15259 12.7309C10.324 11.6246 12.1601 11.6411 13.3113 12.7684L15 14.4219" stroke="#009846" stroke-width="1.5" stroke-linejoin="round"/>
<circle cx="10" cy="23.25" r="2.375" stroke="#009846" stroke-width="1.5"/>
</svg>
