<svg width="43" height="42" viewBox="0 0 43 42" fill="none" xmlns="http://www.w3.org/2000/svg">
<path d="M7.77319 0.378906C8.65337 -0.183953 9.74914 -0.0944605 10.5447 0.474609C11.6399 1.25807 13.6354 2.62163 15.3855 3.48438C17.9379 4.74259 20.5605 5.19156 23.2507 5.92969C25.8753 6.64985 28.4805 7.63889 30.4431 10.0605C30.6634 10.3324 30.8224 10.7115 30.9402 11.0332C31.0703 11.3888 31.1978 11.8149 31.3201 12.2725C31.5653 13.1901 31.8061 14.299 32.0173 15.3584C32.2291 16.4209 32.4142 17.449 32.5457 18.21C32.5716 18.3602 32.5943 18.501 32.616 18.6289H40.2595C41.6397 18.6292 42.7592 19.7487 42.7595 21.1289V39.1611C42.7595 40.5416 41.64 41.6608 40.2595 41.6611H10.6599C9.2792 41.6611 8.15991 40.5418 8.15991 39.1611V21.8057C8.09478 21.7196 8.01531 21.6151 7.92456 21.4941C7.65068 21.129 7.26899 20.6148 6.83765 20.0176C5.97859 18.8281 4.90641 17.2891 4.09546 15.9375C3.62475 15.1531 2.62978 14.5579 1.69995 14.1699C0.623879 13.7208 -0.254101 12.5363 0.0671387 11.1807C0.45248 9.55464 1.25901 6.6761 2.56226 4.85156C3.90106 2.97758 6.49405 1.19721 7.77319 0.378906ZM10.1599 38.5078V39.1611C10.1599 39.4373 10.3838 39.6611 10.6599 39.6611H40.2595C40.5354 39.6608 40.7595 39.4371 40.7595 39.1611V38.5078H10.1599ZM10.1599 34.3018V36.5078H40.7595V34.3018H10.1599ZM25.7917 20.6289C26.6688 21.0116 27.5486 21.4757 28.199 22.0127C29.2045 22.843 30.0687 23.8552 30.6238 24.835C30.9009 25.3242 31.1187 25.8378 31.2253 26.3408C31.3299 26.8346 31.3448 27.4091 31.0974 27.9395C30.7216 28.7446 30.1029 29.3596 29.0632 29.6299C28.1274 29.873 26.9007 29.8223 25.2947 29.5547C23.7293 29.2937 22.814 28.8389 21.8923 28.248C21.0015 27.6769 20.2163 27.0644 18.7029 26.3076C17.9008 25.9066 16.9446 25.6792 15.863 25.4775C14.8291 25.2847 13.6284 25.1083 12.5593 24.7949C11.6369 24.5244 10.7847 24.1007 10.1599 23.7432V32.3018H40.7595V21.1289C40.7592 20.8533 40.5352 20.6292 40.2595 20.6289H25.7917ZM9.38159 2.10156C9.19607 1.96884 8.98748 1.9766 8.85132 2.06348C7.55076 2.89546 5.27556 4.49311 4.18921 6.01367C3.13939 7.4834 2.40155 10.0047 2.01343 11.6426C1.96862 11.8325 2.081 12.1607 2.47046 12.3232C3.48382 12.7461 4.994 13.548 5.8103 14.9082C6.57672 16.1856 7.60897 17.6701 8.45874 18.8467C8.88167 19.4323 9.25587 19.9372 9.52417 20.2949C9.65805 20.4734 9.76589 20.615 9.8396 20.7119C9.87644 20.7604 9.90451 20.7983 9.92358 20.8232C9.93286 20.8354 9.94031 20.8444 9.94507 20.8506C9.94742 20.8536 9.94978 20.8569 9.95093 20.8584L9.9519 20.8594V20.8604L9.97241 20.8867L9.99194 20.915L10.3708 21.4844C10.4043 21.5346 10.4358 21.5626 10.4587 21.5781C10.8997 21.8746 11.9714 22.5386 13.1218 22.876C14.0619 23.1516 15.0794 23.2963 16.2292 23.5107C17.3316 23.7163 18.5267 23.9832 19.5974 24.5186C21.2381 25.339 22.2009 26.0699 22.9724 26.5645C23.7132 27.0393 24.3757 27.374 25.6238 27.582C27.1723 27.8401 28.0503 27.8268 28.5603 27.6943C28.9656 27.5889 29.1361 27.4148 29.2859 27.0938C29.2884 27.0861 29.3194 26.9916 29.2693 26.7549C29.2174 26.5104 29.094 26.1918 28.8835 25.8203C28.463 25.0781 27.7664 24.25 26.9255 23.5557C26.314 23.0507 25.2799 22.5521 24.1687 22.126C23.0843 21.7101 22.0288 21.4009 21.4509 21.2422C20.9656 21.1089 20.5194 20.8359 20.1804 20.4404L20.0427 20.2803L17.7058 17.5537C17.1203 16.8704 17.2647 15.8283 18.0134 15.3291L20.0876 13.9463C20.7295 13.5185 21.5336 13.4104 22.2654 13.6543L24.0457 14.248C24.761 14.4867 25.3306 15.0361 25.5955 15.7422L26.6785 18.6289H30.5886C30.5842 18.6033 30.5795 18.5771 30.575 18.5508C30.4453 17.8002 30.2638 16.7903 30.0564 15.75C29.8484 14.7064 29.6164 13.6458 29.3875 12.7891C29.2728 12.36 29.1635 11.9974 29.0623 11.7207C28.9487 11.4105 28.8824 11.3117 28.8894 11.3203C27.3353 9.40271 25.2451 8.55086 22.7214 7.8584C20.2631 7.1839 17.2822 6.64798 14.5017 5.27734C12.5964 4.33809 10.4896 2.89415 9.38159 2.10156ZM21.6326 15.5518C21.4864 15.5031 21.3253 15.525 21.197 15.6104L19.5916 16.6797L21.2615 18.6289H24.5417L23.7224 16.4443C23.6695 16.3033 23.5557 16.1933 23.4128 16.1455L21.6326 15.5518Z" fill="white"/>
</svg>
