<svg width="25" height="25" viewBox="0 0 25 25" fill="none" xmlns="http://www.w3.org/2000/svg">
<mask id="path-1-outside-1_332_10882" maskUnits="userSpaceOnUse" x="-0.700195" y="-0.699219" width="26" height="26" fill="black">
<rect fill="white" x="-0.700195" y="-0.699219" width="26" height="26"/>
<path d="M23.2408 9.00266L22.4995 8.89668L21.5859 8.8173L21.3346 8.19479L21.9302 7.4929L22.3671 6.89668C22.53 6.67459 22.6054 6.43328 22.6054 6.15496C22.6054 6.11541 22.6054 6.08885 22.5921 6.04898C22.5789 5.73108 22.447 5.47991 22.2346 5.26768L19.3357 2.36685C19.1233 2.15466 18.8734 1.99613 18.5546 1.99613H18.4354C18.1575 1.99613 17.9147 2.06931 17.7074 2.22136L17.1118 2.65847L16.41 3.25442L15.7745 3.01593L15.6952 2.08885L15.5893 1.3604C15.5049 0.779994 14.9406 0.300781 14.3451 0.300781H10.2546C9.65875 0.300781 9.08153 0.779994 8.9971 1.3604L8.89118 2.08885L8.81153 3.01593L8.18937 3.25442L7.48788 2.65847L6.89228 2.22136C6.69377 2.07555 6.45537 1.99613 6.19047 1.99613H6.07129C5.75271 1.99613 5.48894 2.14167 5.26388 2.36685L2.36498 5.26768C2.16647 5.4663 2.04726 5.73108 2.02075 6.04898C2.00745 6.10211 2.00745 6.15496 2.00745 6.19479C2.00745 6.44658 2.06733 6.68931 2.21926 6.89668L2.65612 7.4929L3.27828 8.19479C3.18565 8.36688 3.10628 8.56582 3.01337 8.8173L2.08682 8.89668L1.35879 9.00266C0.791765 9.08517 0.299805 9.66499 0.299805 10.2609V14.3539C0.299805 14.9499 0.788079 15.5158 1.35882 15.5989L2.08686 15.7048L3.01341 15.7842C3.11933 16.0623 3.21224 16.2742 3.27831 16.42L2.65616 17.1219L2.21929 17.7181C2.07357 17.9167 2.00749 18.142 2.00749 18.3934C2.00749 18.4333 2.00749 18.4861 2.02078 18.5392C2.04733 18.8571 2.15267 19.1349 2.36502 19.3471L5.26392 22.248C5.48251 22.4666 5.75275 22.6054 6.07133 22.6054H6.19051C6.45541 22.6054 6.69376 22.526 6.89231 22.3805L7.48792 21.9433L8.18941 21.3209C8.42777 21.4398 8.63957 21.5328 8.81157 21.5989L8.89122 22.5127L8.99714 23.2544C9.07816 23.8221 9.65882 24.3008 10.2547 24.3008H14.3451C14.9407 24.3008 15.5083 23.8221 15.5893 23.2544L15.6952 22.5127L15.7745 21.5989C15.9864 21.5195 16.1982 21.4268 16.41 21.3209L17.1118 21.9433L17.7074 22.3805C17.9147 22.5325 18.1575 22.5924 18.4222 22.5924H18.5546C18.8735 22.5924 19.1369 22.4466 19.3357 22.248L22.2347 19.3471C22.4597 19.1219 22.5789 18.8571 22.5922 18.5392C22.6055 18.4994 22.6055 18.4731 22.6055 18.4333C22.6055 18.1553 22.5173 17.9233 22.3671 17.7181L21.9302 17.1219L21.3346 16.42L21.5859 15.7842L22.4995 15.7048L23.2408 15.5989C23.8211 15.5158 24.2998 14.9498 24.2998 14.3539V10.2609C24.2998 9.66499 23.8211 9.08572 23.2408 9.00266ZM22.9891 14.3273L22.3139 14.4333L21.9832 14.4598L20.6065 14.5658C20.5534 14.8439 20.4633 15.1041 20.3682 15.3338C20.3557 15.3739 20.2919 15.5472 20.1431 15.8769C20.1066 15.958 19.9973 16.1948 19.7988 16.5791L20.6593 17.6387L20.8711 17.8769L21.2815 18.4466L18.4354 21.2943L17.8925 20.8837L17.628 20.6718L16.5689 19.771C16.304 19.9434 16.0665 20.0637 15.8674 20.1553C15.7488 20.2095 15.3907 20.3407 15.3246 20.3804L14.5567 20.6187L14.4509 21.9696L14.4243 22.3273L14.3184 23.0029H10.2812L10.1753 22.3273L10.1354 21.9696L10.0295 20.6187L9.27494 20.3804L8.73216 20.1553C8.52965 20.0711 8.29526 19.9434 8.03067 19.771L6.97165 20.6718L6.72004 20.8837L6.15098 21.2943L3.30486 18.4466L3.71522 17.8769L3.92702 17.6387L4.82706 16.5791C4.65506 16.3141 4.5229 16.0812 4.44326 15.8769L4.23145 15.3338L3.9931 14.5658L2.28541 14.4333L1.59718 14.3273V10.2875L2.28541 10.1682L2.62965 10.1419L3.9931 10.036L4.23145 9.28097L4.44326 8.73788C4.5229 8.53357 4.65506 8.30073 4.82706 8.03599L3.92702 6.97637L3.71522 6.69806L3.30486 6.15496L6.15098 3.30727L6.72004 3.71813L6.97165 3.93005L8.03067 4.80404L8.32181 4.64524C8.49349 4.55143 8.64008 4.48759 8.73216 4.44662C8.99761 4.32852 9.18314 4.2635 9.27494 4.2347C9.5178 4.13974 9.76463 4.04906 10.0295 3.99621L10.1354 2.60542L10.1753 2.28752L10.2812 1.59889H14.3185L14.4244 2.28752L14.4509 2.60542L14.5568 3.99621C14.8347 4.04906 15.0928 4.14402 15.3247 4.2347C15.5088 4.29179 15.6927 4.359 15.8675 4.44662L16.2645 4.64524L16.569 4.80404L17.628 3.93005L17.8926 3.71813L18.4354 3.30727L21.2815 6.15496L20.8711 6.69806L20.6593 6.97637L19.7989 8.03599C19.9974 8.42001 20.1047 8.65764 20.1431 8.73788C20.2504 8.96224 20.3227 9.13685 20.3682 9.28097C20.4679 9.52201 20.5534 9.77094 20.6065 10.036L21.9833 10.1419L22.314 10.1682L22.9892 10.2875L22.9891 14.3273Z"/>
<path d="M12.3826 8.19479C11.2155 8.19479 10.2283 8.60599 9.41078 9.43182C8.59987 10.2507 8.18937 11.2395 8.18937 12.3948C8.18937 13.5637 8.59641 14.556 9.41078 15.3717C10.2249 16.1871 11.2155 16.5948 12.3826 16.5948C13.5362 16.5948 14.5266 16.1871 15.3546 15.3717C16.1823 14.556 16.5894 13.5637 16.5894 12.3948C16.5894 11.2395 16.1823 10.2609 15.3546 9.43182C14.5266 8.60249 13.5362 8.19479 12.3826 8.19479ZM14.3912 14.4472C13.8347 15.0046 13.1561 15.2902 12.3826 15.2902C11.5821 15.2902 10.8968 15.0115 10.3334 14.4472C9.77034 13.8832 9.49211 13.1696 9.49211 12.3948C9.49211 11.62 9.77697 10.9406 10.3334 10.3832C10.9035 9.81226 11.5821 9.52689 12.3826 9.52689C13.1561 9.52689 13.8278 9.8189 14.3912 10.3832C14.9542 10.9472 15.2461 11.62 15.2461 12.3948C15.2461 13.1968 14.9609 13.8766 14.3912 14.4472Z"/>
</mask>
<path d="M23.2408 9.00266L22.4995 8.89668L21.5859 8.8173L21.3346 8.19479L21.9302 7.4929L22.3671 6.89668C22.53 6.67459 22.6054 6.43328 22.6054 6.15496C22.6054 6.11541 22.6054 6.08885 22.5921 6.04898C22.5789 5.73108 22.447 5.47991 22.2346 5.26768L19.3357 2.36685C19.1233 2.15466 18.8734 1.99613 18.5546 1.99613H18.4354C18.1575 1.99613 17.9147 2.06931 17.7074 2.22136L17.1118 2.65847L16.41 3.25442L15.7745 3.01593L15.6952 2.08885L15.5893 1.3604C15.5049 0.779994 14.9406 0.300781 14.3451 0.300781H10.2546C9.65875 0.300781 9.08153 0.779994 8.9971 1.3604L8.89118 2.08885L8.81153 3.01593L8.18937 3.25442L7.48788 2.65847L6.89228 2.22136C6.69377 2.07555 6.45537 1.99613 6.19047 1.99613H6.07129C5.75271 1.99613 5.48894 2.14167 5.26388 2.36685L2.36498 5.26768C2.16647 5.4663 2.04726 5.73108 2.02075 6.04898C2.00745 6.10211 2.00745 6.15496 2.00745 6.19479C2.00745 6.44658 2.06733 6.68931 2.21926 6.89668L2.65612 7.4929L3.27828 8.19479C3.18565 8.36688 3.10628 8.56582 3.01337 8.8173L2.08682 8.89668L1.35879 9.00266C0.791765 9.08517 0.299805 9.66499 0.299805 10.2609V14.3539C0.299805 14.9499 0.788079 15.5158 1.35882 15.5989L2.08686 15.7048L3.01341 15.7842C3.11933 16.0623 3.21224 16.2742 3.27831 16.42L2.65616 17.1219L2.21929 17.7181C2.07357 17.9167 2.00749 18.142 2.00749 18.3934C2.00749 18.4333 2.00749 18.4861 2.02078 18.5392C2.04733 18.8571 2.15267 19.1349 2.36502 19.3471L5.26392 22.248C5.48251 22.4666 5.75275 22.6054 6.07133 22.6054H6.19051C6.45541 22.6054 6.69376 22.526 6.89231 22.3805L7.48792 21.9433L8.18941 21.3209C8.42777 21.4398 8.63957 21.5328 8.81157 21.5989L8.89122 22.5127L8.99714 23.2544C9.07816 23.8221 9.65882 24.3008 10.2547 24.3008H14.3451C14.9407 24.3008 15.5083 23.8221 15.5893 23.2544L15.6952 22.5127L15.7745 21.5989C15.9864 21.5195 16.1982 21.4268 16.41 21.3209L17.1118 21.9433L17.7074 22.3805C17.9147 22.5325 18.1575 22.5924 18.4222 22.5924H18.5546C18.8735 22.5924 19.1369 22.4466 19.3357 22.248L22.2347 19.3471C22.4597 19.1219 22.5789 18.8571 22.5922 18.5392C22.6055 18.4994 22.6055 18.4731 22.6055 18.4333C22.6055 18.1553 22.5173 17.9233 22.3671 17.7181L21.9302 17.1219L21.3346 16.42L21.5859 15.7842L22.4995 15.7048L23.2408 15.5989C23.8211 15.5158 24.2998 14.9498 24.2998 14.3539V10.2609C24.2998 9.66499 23.8211 9.08572 23.2408 9.00266ZM22.9891 14.3273L22.3139 14.4333L21.9832 14.4598L20.6065 14.5658C20.5534 14.8439 20.4633 15.1041 20.3682 15.3338C20.3557 15.3739 20.2919 15.5472 20.1431 15.8769C20.1066 15.958 19.9973 16.1948 19.7988 16.5791L20.6593 17.6387L20.8711 17.8769L21.2815 18.4466L18.4354 21.2943L17.8925 20.8837L17.628 20.6718L16.5689 19.771C16.304 19.9434 16.0665 20.0637 15.8674 20.1553C15.7488 20.2095 15.3907 20.3407 15.3246 20.3804L14.5567 20.6187L14.4509 21.9696L14.4243 22.3273L14.3184 23.0029H10.2812L10.1753 22.3273L10.1354 21.9696L10.0295 20.6187L9.27494 20.3804L8.73216 20.1553C8.52965 20.0711 8.29526 19.9434 8.03067 19.771L6.97165 20.6718L6.72004 20.8837L6.15098 21.2943L3.30486 18.4466L3.71522 17.8769L3.92702 17.6387L4.82706 16.5791C4.65506 16.3141 4.5229 16.0812 4.44326 15.8769L4.23145 15.3338L3.9931 14.5658L2.28541 14.4333L1.59718 14.3273V10.2875L2.28541 10.1682L2.62965 10.1419L3.9931 10.036L4.23145 9.28097L4.44326 8.73788C4.5229 8.53357 4.65506 8.30073 4.82706 8.03599L3.92702 6.97637L3.71522 6.69806L3.30486 6.15496L6.15098 3.30727L6.72004 3.71813L6.97165 3.93005L8.03067 4.80404L8.32181 4.64524C8.49349 4.55143 8.64008 4.48759 8.73216 4.44662C8.99761 4.32852 9.18314 4.2635 9.27494 4.2347C9.5178 4.13974 9.76463 4.04906 10.0295 3.99621L10.1354 2.60542L10.1753 2.28752L10.2812 1.59889H14.3185L14.4244 2.28752L14.4509 2.60542L14.5568 3.99621C14.8347 4.04906 15.0928 4.14402 15.3247 4.2347C15.5088 4.29179 15.6927 4.359 15.8675 4.44662L16.2645 4.64524L16.569 4.80404L17.628 3.93005L17.8926 3.71813L18.4354 3.30727L21.2815 6.15496L20.8711 6.69806L20.6593 6.97637L19.7989 8.03599C19.9974 8.42001 20.1047 8.65764 20.1431 8.73788C20.2504 8.96224 20.3227 9.13685 20.3682 9.28097C20.4679 9.52201 20.5534 9.77094 20.6065 10.036L21.9833 10.1419L22.314 10.1682L22.9892 10.2875L22.9891 14.3273Z" fill="#009846"/>
<path d="M12.3826 8.19479C11.2155 8.19479 10.2283 8.60599 9.41078 9.43182C8.59987 10.2507 8.18937 11.2395 8.18937 12.3948C8.18937 13.5637 8.59641 14.556 9.41078 15.3717C10.2249 16.1871 11.2155 16.5948 12.3826 16.5948C13.5362 16.5948 14.5266 16.1871 15.3546 15.3717C16.1823 14.556 16.5894 13.5637 16.5894 12.3948C16.5894 11.2395 16.1823 10.2609 15.3546 9.43182C14.5266 8.60249 13.5362 8.19479 12.3826 8.19479ZM14.3912 14.4472C13.8347 15.0046 13.1561 15.2902 12.3826 15.2902C11.5821 15.2902 10.8968 15.0115 10.3334 14.4472C9.77034 13.8832 9.49211 13.1696 9.49211 12.3948C9.49211 11.62 9.77697 10.9406 10.3334 10.3832C10.9035 9.81226 11.5821 9.52689 12.3826 9.52689C13.1561 9.52689 13.8278 9.8189 14.3912 10.3832C14.9542 10.9472 15.2461 11.62 15.2461 12.3948C15.2461 13.1968 14.9609 13.8766 14.3912 14.4472Z" fill="#009846"/>
<path d="M23.2408 9.00266L22.4995 8.89668L21.5859 8.8173L21.3346 8.19479L21.9302 7.4929L22.3671 6.89668C22.53 6.67459 22.6054 6.43328 22.6054 6.15496C22.6054 6.11541 22.6054 6.08885 22.5921 6.04898C22.5789 5.73108 22.447 5.47991 22.2346 5.26768L19.3357 2.36685C19.1233 2.15466 18.8734 1.99613 18.5546 1.99613H18.4354C18.1575 1.99613 17.9147 2.06931 17.7074 2.22136L17.1118 2.65847L16.41 3.25442L15.7745 3.01593L15.6952 2.08885L15.5893 1.3604C15.5049 0.779994 14.9406 0.300781 14.3451 0.300781H10.2546C9.65875 0.300781 9.08153 0.779994 8.9971 1.3604L8.89118 2.08885L8.81153 3.01593L8.18937 3.25442L7.48788 2.65847L6.89228 2.22136C6.69377 2.07555 6.45537 1.99613 6.19047 1.99613H6.07129C5.75271 1.99613 5.48894 2.14167 5.26388 2.36685L2.36498 5.26768C2.16647 5.4663 2.04726 5.73108 2.02075 6.04898C2.00745 6.10211 2.00745 6.15496 2.00745 6.19479C2.00745 6.44658 2.06733 6.68931 2.21926 6.89668L2.65612 7.4929L3.27828 8.19479C3.18565 8.36688 3.10628 8.56582 3.01337 8.8173L2.08682 8.89668L1.35879 9.00266C0.791765 9.08517 0.299805 9.66499 0.299805 10.2609V14.3539C0.299805 14.9499 0.788079 15.5158 1.35882 15.5989L2.08686 15.7048L3.01341 15.7842C3.11933 16.0623 3.21224 16.2742 3.27831 16.42L2.65616 17.1219L2.21929 17.7181C2.07357 17.9167 2.00749 18.142 2.00749 18.3934C2.00749 18.4333 2.00749 18.4861 2.02078 18.5392C2.04733 18.8571 2.15267 19.1349 2.36502 19.3471L5.26392 22.248C5.48251 22.4666 5.75275 22.6054 6.07133 22.6054H6.19051C6.45541 22.6054 6.69376 22.526 6.89231 22.3805L7.48792 21.9433L8.18941 21.3209C8.42777 21.4398 8.63957 21.5328 8.81157 21.5989L8.89122 22.5127L8.99714 23.2544C9.07816 23.8221 9.65882 24.3008 10.2547 24.3008H14.3451C14.9407 24.3008 15.5083 23.8221 15.5893 23.2544L15.6952 22.5127L15.7745 21.5989C15.9864 21.5195 16.1982 21.4268 16.41 21.3209L17.1118 21.9433L17.7074 22.3805C17.9147 22.5325 18.1575 22.5924 18.4222 22.5924H18.5546C18.8735 22.5924 19.1369 22.4466 19.3357 22.248L22.2347 19.3471C22.4597 19.1219 22.5789 18.8571 22.5922 18.5392C22.6055 18.4994 22.6055 18.4731 22.6055 18.4333C22.6055 18.1553 22.5173 17.9233 22.3671 17.7181L21.9302 17.1219L21.3346 16.42L21.5859 15.7842L22.4995 15.7048L23.2408 15.5989C23.8211 15.5158 24.2998 14.9498 24.2998 14.3539V10.2609C24.2998 9.66499 23.8211 9.08572 23.2408 9.00266ZM22.9891 14.3273L22.3139 14.4333L21.9832 14.4598L20.6065 14.5658C20.5534 14.8439 20.4633 15.1041 20.3682 15.3338C20.3557 15.3739 20.2919 15.5472 20.1431 15.8769C20.1066 15.958 19.9973 16.1948 19.7988 16.5791L20.6593 17.6387L20.8711 17.8769L21.2815 18.4466L18.4354 21.2943L17.8925 20.8837L17.628 20.6718L16.5689 19.771C16.304 19.9434 16.0665 20.0637 15.8674 20.1553C15.7488 20.2095 15.3907 20.3407 15.3246 20.3804L14.5567 20.6187L14.4509 21.9696L14.4243 22.3273L14.3184 23.0029H10.2812L10.1753 22.3273L10.1354 21.9696L10.0295 20.6187L9.27494 20.3804L8.73216 20.1553C8.52965 20.0711 8.29526 19.9434 8.03067 19.771L6.97165 20.6718L6.72004 20.8837L6.15098 21.2943L3.30486 18.4466L3.71522 17.8769L3.92702 17.6387L4.82706 16.5791C4.65506 16.3141 4.5229 16.0812 4.44326 15.8769L4.23145 15.3338L3.9931 14.5658L2.28541 14.4333L1.59718 14.3273V10.2875L2.28541 10.1682L2.62965 10.1419L3.9931 10.036L4.23145 9.28097L4.44326 8.73788C4.5229 8.53357 4.65506 8.30073 4.82706 8.03599L3.92702 6.97637L3.71522 6.69806L3.30486 6.15496L6.15098 3.30727L6.72004 3.71813L6.97165 3.93005L8.03067 4.80404L8.32181 4.64524C8.49349 4.55143 8.64008 4.48759 8.73216 4.44662C8.99761 4.32852 9.18314 4.2635 9.27494 4.2347C9.5178 4.13974 9.76463 4.04906 10.0295 3.99621L10.1354 2.60542L10.1753 2.28752L10.2812 1.59889H14.3185L14.4244 2.28752L14.4509 2.60542L14.5568 3.99621C14.8347 4.04906 15.0928 4.14402 15.3247 4.2347C15.5088 4.29179 15.6927 4.359 15.8675 4.44662L16.2645 4.64524L16.569 4.80404L17.628 3.93005L17.8926 3.71813L18.4354 3.30727L21.2815 6.15496L20.8711 6.69806L20.6593 6.97637L19.7989 8.03599C19.9974 8.42001 20.1047 8.65764 20.1431 8.73788C20.2504 8.96224 20.3227 9.13685 20.3682 9.28097C20.4679 9.52201 20.5534 9.77094 20.6065 10.036L21.9833 10.1419L22.314 10.1682L22.9892 10.2875L22.9891 14.3273Z" stroke="#009846" stroke-width="0.6" mask="url(#path-1-outside-1_332_10882)"/>
<path d="M12.3826 8.19479C11.2155 8.19479 10.2283 8.60599 9.41078 9.43182C8.59987 10.2507 8.18937 11.2395 8.18937 12.3948C8.18937 13.5637 8.59641 14.556 9.41078 15.3717C10.2249 16.1871 11.2155 16.5948 12.3826 16.5948C13.5362 16.5948 14.5266 16.1871 15.3546 15.3717C16.1823 14.556 16.5894 13.5637 16.5894 12.3948C16.5894 11.2395 16.1823 10.2609 15.3546 9.43182C14.5266 8.60249 13.5362 8.19479 12.3826 8.19479ZM14.3912 14.4472C13.8347 15.0046 13.1561 15.2902 12.3826 15.2902C11.5821 15.2902 10.8968 15.0115 10.3334 14.4472C9.77034 13.8832 9.49211 13.1696 9.49211 12.3948C9.49211 11.62 9.77697 10.9406 10.3334 10.3832C10.9035 9.81226 11.5821 9.52689 12.3826 9.52689C13.1561 9.52689 13.8278 9.8189 14.3912 10.3832C14.9542 10.9472 15.2461 11.62 15.2461 12.3948C15.2461 13.1968 14.9609 13.8766 14.3912 14.4472Z" stroke="#009846" stroke-width="0.6" mask="url(#path-1-outside-1_332_10882)"/>
</svg>
