<svg width="31" height="36" viewBox="0 0 31 36" fill="none" xmlns="http://www.w3.org/2000/svg">
<path d="M8.68356 8.07328V3.75C8.68356 2.09314 10.0267 0.75 11.6836 0.75H19.7198C21.3767 0.75 22.7199 2.09315 22.7199 3.75V8.07328M8.68356 8.07328C8.68356 8.07328 12.7642 7.4828 15.3966 7.46301C18.2663 7.44143 22.7199 8.07328 22.7199 8.07328M8.68356 8.07328L9.9041 9.9041H20.889L22.7199 8.07328M0.75 35.5356V30.0431C0.75 24.6504 5.12166 20.2788 10.5144 20.2788M29.4329 35.5356V29.4329C29.4329 24.3772 25.3344 20.2788 20.2788 20.2788M10.5144 20.2788V26.8226C10.5144 27.9272 11.4098 28.8226 12.5144 28.8226H18.2788C19.3833 28.8226 20.2788 27.9272 20.2788 26.8226V20.2788M10.5144 20.2788H20.2788M5.02192 35.5356V22.1096M25.7712 35.5356V22.1096M7.46301 25.7712V28.8226M23.3301 25.7712V28.8226" stroke="#009846" stroke-width="1.5" stroke-linejoin="round"/>
<path d="M22.3294 7.875C22.9668 9.01745 23.33 10.3338 23.33 11.7349C23.33 16.1165 19.778 19.6685 15.3964 19.6685C11.0149 19.6685 7.46289 16.1165 7.46289 11.7349C7.46289 10.3338 7.82612 9.01745 8.46354 7.875" stroke="#009846" stroke-width="1.5"/>
</svg>
